<mxfile host="app.diagrams.net" agent="Mozilla/5.0 (Windows NT 10.0; Win64; x64) AppleWebKit/537.36 (KHTML, like Gecko) Chrome/131.0.0.0 Safari/537.36 Edg/131.0.0.0" version="25.0.1">
  <diagram name="หน้า-1" id="BX8PYFbBsF0PXGbIH167">
    <mxGraphModel dx="2493" dy="795" grid="1" gridSize="10" guides="1" tooltips="1" connect="1" arrows="1" fold="1" page="1" pageScale="1" pageWidth="827" pageHeight="1169" math="0" shadow="0">
      <root>
        <mxCell id="0" />
        <mxCell id="1" parent="0" />
        <mxCell id="Kx2uYxLuwylRj8r_4bF4-4" value="" style="edgeStyle=orthogonalEdgeStyle;rounded=0;orthogonalLoop=1;jettySize=auto;html=1;" edge="1" parent="1" source="Kx2uYxLuwylRj8r_4bF4-1" target="Kx2uYxLuwylRj8r_4bF4-2">
          <mxGeometry relative="1" as="geometry" />
        </mxCell>
        <mxCell id="Kx2uYxLuwylRj8r_4bF4-1" value="Start" style="ellipse;whiteSpace=wrap;html=1;" vertex="1" parent="1">
          <mxGeometry x="-473" y="40" width="120" height="80" as="geometry" />
        </mxCell>
        <mxCell id="Kx2uYxLuwylRj8r_4bF4-5" value="" style="edgeStyle=orthogonalEdgeStyle;rounded=0;orthogonalLoop=1;jettySize=auto;html=1;" edge="1" parent="1" source="Kx2uYxLuwylRj8r_4bF4-2" target="Kx2uYxLuwylRj8r_4bF4-3">
          <mxGeometry relative="1" as="geometry" />
        </mxCell>
        <mxCell id="Kx2uYxLuwylRj8r_4bF4-2" value="รับข้อมูลUser ตำแหน่ง X1 ,Y1" style="shape=parallelogram;perimeter=parallelogramPerimeter;whiteSpace=wrap;html=1;fixedSize=1;" vertex="1" parent="1">
          <mxGeometry x="-508" y="170" width="190" height="60" as="geometry" />
        </mxCell>
        <mxCell id="Kx2uYxLuwylRj8r_4bF4-7" value="" style="edgeStyle=orthogonalEdgeStyle;rounded=0;orthogonalLoop=1;jettySize=auto;html=1;" edge="1" parent="1" source="Kx2uYxLuwylRj8r_4bF4-3" target="Kx2uYxLuwylRj8r_4bF4-6">
          <mxGeometry relative="1" as="geometry" />
        </mxCell>
        <mxCell id="Kx2uYxLuwylRj8r_4bF4-3" value="รับข้อมูลUser ตำแหน่ง X2 ,Y2" style="shape=parallelogram;perimeter=parallelogramPerimeter;whiteSpace=wrap;html=1;fixedSize=1;" vertex="1" parent="1">
          <mxGeometry x="-508" y="270" width="190" height="60" as="geometry" />
        </mxCell>
        <mxCell id="Kx2uYxLuwylRj8r_4bF4-9" value="" style="edgeStyle=orthogonalEdgeStyle;rounded=0;orthogonalLoop=1;jettySize=auto;html=1;" edge="1" parent="1" source="Kx2uYxLuwylRj8r_4bF4-6" target="Kx2uYxLuwylRj8r_4bF4-8">
          <mxGeometry relative="1" as="geometry" />
        </mxCell>
        <mxCell id="Kx2uYxLuwylRj8r_4bF4-6" value="X1 + X2 หาร 2.0" style="rounded=0;whiteSpace=wrap;html=1;" vertex="1" parent="1">
          <mxGeometry x="-473" y="380" width="120" height="60" as="geometry" />
        </mxCell>
        <mxCell id="Kx2uYxLuwylRj8r_4bF4-11" value="" style="edgeStyle=orthogonalEdgeStyle;rounded=0;orthogonalLoop=1;jettySize=auto;html=1;" edge="1" parent="1" source="Kx2uYxLuwylRj8r_4bF4-8" target="Kx2uYxLuwylRj8r_4bF4-10">
          <mxGeometry relative="1" as="geometry" />
        </mxCell>
        <mxCell id="Kx2uYxLuwylRj8r_4bF4-8" value="Y1 + Y2 หาร 2.0" style="rounded=0;whiteSpace=wrap;html=1;" vertex="1" parent="1">
          <mxGeometry x="-473" y="490" width="120" height="60" as="geometry" />
        </mxCell>
        <mxCell id="Kx2uYxLuwylRj8r_4bF4-13" value="" style="edgeStyle=orthogonalEdgeStyle;rounded=0;orthogonalLoop=1;jettySize=auto;html=1;" edge="1" parent="1" source="Kx2uYxLuwylRj8r_4bF4-10" target="Kx2uYxLuwylRj8r_4bF4-12">
          <mxGeometry relative="1" as="geometry" />
        </mxCell>
        <mxCell id="Kx2uYxLuwylRj8r_4bF4-10" value="แสดงผลลัพธ์" style="shape=parallelogram;perimeter=parallelogramPerimeter;whiteSpace=wrap;html=1;fixedSize=1;" vertex="1" parent="1">
          <mxGeometry x="-508" y="610" width="190" height="60" as="geometry" />
        </mxCell>
        <mxCell id="Kx2uYxLuwylRj8r_4bF4-12" value="END" style="ellipse;whiteSpace=wrap;html=1;" vertex="1" parent="1">
          <mxGeometry x="-473.5" y="730" width="120" height="80" as="geometry" />
        </mxCell>
      </root>
    </mxGraphModel>
  </diagram>
</mxfile>
